# xmcd
#
# Track frame offsets:
#	150
#	12532
#	23234
#	35009
#	45434
#	54331
#	64514
#	74830
#	86023
#	97074
#	108689
#	120239
#	132931
#	144336
#	157365
#	170453
#	180971
#	193511
#	202049
#	212399
#	223499
#	234374
#	246256
#	256051
#	266005
#
# Disc length: 3714 seconds
# Revision: 0
# Processed by: cddbd v1.5.2PL0 Copyright (c) Steve Scherf et al.
# Submitted via: dBpowerAMP V12.0
#
DISCID=720e8019
DTITLE=Patsy Cline - 50 Songs [Gusto]
DYEAR=2010
DGENRE=Country
TTITLE0=A Poor Man's Roses (Or A Rich Man's Gold)
TTITLE1=Stop, Look and Listen
TTITLE2=Today, Tomorrow and Forever
TTITLE3=I Love You, Honey
TTITLE4=Try Again
TTITLE5=Three Cigarettes in an Ashtray
TTITLE6=Walking Dream
TTITLE7=Hidin' Out
TTITLE8=I Can't Forget You
TTITLE9=Let the Teardrops Fall
TTITLE10=The Heart You Break May Be Your Own
TTITLE11=Just A Closer Walk With Thee
TTITLE12=Dear God
TTITLE13=Life's a Railway to Heaven
TTITLE14=If I Could See the World (Through the Eyes of A Child)
TTITLE15=He Will Do for You What He Has Done For Me
TTITLE16=Fingerprints
TTITLE17=Come On In
TTITLE18=How Can I Face Tomorrow
TTITLE19=A Stranger in My Arms
TTITLE20=I Don't Wanta
TTITLE21=If I Could Only Stay Asleep
TTITLE22=I'm Blue Again
TTITLE23=Turn the Cards Slowly
TTITLE24=I Fall to Pieces (Featuring Dottie West)
EXTD=
EXTT0=
EXTT1=
EXTT2=
EXTT3=
EXTT4=
EXTT5=
EXTT6=
EXTT7=
EXTT8=
EXTT9=
EXTT10=
EXTT11=
EXTT12=
EXTT13=
EXTT14=
EXTT15=
EXTT16=
EXTT17=
EXTT18=
EXTT19=
EXTT20=
EXTT21=
EXTT22=
EXTT23=
EXTT24=
PLAYORDER=
